<?xml version="1.0" encoding="UTF-8" standalone="no"?>
<!-- Created with Inkscape (http://www.inkscape.org/) -->

<svg
   width="98.938309mm"
   height="39.406548mm"
   viewBox="0 0 98.938309 39.406548"
   version="1.1"
   id="svg1"
   inkscape:version="1.4.3 (0d15f75042, 2025-12-25)"
   sodipodi:docname="lightwave_logo.svg"
   xmlns:inkscape="http://www.inkscape.org/namespaces/inkscape"
   xmlns:sodipodi="http://sodipodi.sourceforge.net/DTD/sodipodi-0.dtd"
   xmlns="http://www.w3.org/2000/svg"
   xmlns:svg="http://www.w3.org/2000/svg">
  <sodipodi:namedview
     id="namedview1"
     pagecolor="#ffffff"
     bordercolor="#000000"
     borderopacity="0.25"
     inkscape:showpageshadow="2"
     inkscape:pageopacity="0.0"
     inkscape:pagecheckerboard="0"
     inkscape:deskcolor="#d1d1d1"
     inkscape:document-units="mm"
     inkscape:zoom="1.9044943"
     inkscape:cx="211.34219"
     inkscape:cy="79.548676"
     inkscape:window-width="1652"
     inkscape:window-height="993"
     inkscape:window-x="0"
     inkscape:window-y="0"
     inkscape:window-maximized="1"
     inkscape:current-layer="layer1"
     showgrid="false" />
  <defs
     id="defs1" />
  <g
     inkscape:label="Layer 1"
     inkscape:groupmode="layer"
     id="layer1"
     transform="translate(-48.055284,-56.331036)">
    <path
       d="m 48.112243,86.226074 9.482682,0.08467 0.296334,-4.635507 c -1.756836,0.338667 -3.471339,0.508 -4.847175,0.508 -0.402167,-3.556005 -0.4445,-6.35001 -0.275167,-10.77385 h -3.873506 c 0.169334,5.778509 -0.02117,9.038181 -0.783168,14.81669 z m 9.990686,0 h 5.439842 c -0.825502,-5.778509 -1.016002,-9.038181 -0.783168,-14.81669 h -3.873506 c 0.169333,5.778509 -0.02117,9.038181 -0.783168,14.81669 z m 11.68404,2.05317 h 5.122342 C 74.147309,85.104239 73.893309,82.500735 73.808642,79.32573 h -2.942171 c -0.02117,0.889001 -0.04233,1.735669 -0.105834,2.561171 -2.222503,0.211667 -3.153838,-1.016002 -3.132671,-3.069172 0,-2.032003 0.889001,-3.450172 1.862669,-3.450172 0.952502,0 1.60867,1.312335 1.439336,2.984505 h 3.344339 c 0.550334,-4.402674 -1.375836,-7.154345 -4.487341,-7.154345 -3.577172,0 -6.138343,3.598339 -6.138343,8.487847 0,4.55084 2.222504,6.244176 4.868341,6.244176 0.592668,0 1.185335,-0.08467 1.79917,-0.232833 -0.148167,0.825501 -0.317501,1.693336 -0.529168,2.582337 z m 5.334004,-2.05317 h 5.439842 c -0.275167,-2.286003 -0.486834,-4.16984 -0.635001,-5.969009 0.804335,-0.02117 1.608669,-0.02117 2.434171,0.02117 -0.148167,1.79917 -0.359834,3.683006 -0.592668,5.947843 h 5.439842 c -0.825501,-5.778509 -1.016001,-9.038181 -0.783168,-14.81669 h -3.873506 c 0.0635,2.18017 0.04233,4.000506 -0.02117,5.736176 -0.952501,0.04233 -1.820336,0.04233 -2.772837,0 -0.0635,-1.73567 -0.0635,-3.556006 0.02117,-5.736176 h -3.873506 c 0.169334,5.778509 -0.02117,9.038181 -0.783168,14.81669 z m 11.705176,-14.81669 0.296333,4.445007 c 1.206502,-0.211667 2.243671,-0.359834 3.217339,-0.444501 -0.127,3.810006 -0.402167,6.328844 -0.994835,10.816184 h 5.439842 c -0.592668,-4.48734 -0.867835,-7.006178 -1.016002,-10.816184 0.994835,0.08467 2.05317,0.232834 3.280839,0.444501 l 0.296334,-4.445007 z m 20.891531,10.287016 -2.032,-5.164675 -2.0955,5.164675 c -0.78317,-3.979339 -0.95251,-5.799676 -0.59267,-10.287016 h -5.439844 c 1.121836,5.037675 1.778003,9.694349 2.074337,14.81669 h 4.593177 l 1.35467,-2.137837 1.41816,2.137837 h 4.67785 c 0.29633,-5.122341 0.9525,-9.779015 2.07433,-14.81669 h -5.43984 c 0.35983,4.48734 0.1905,6.307677 -0.59267,10.287016 z m 10.16001,-2.815171 c 0.10584,-1.524002 0.35984,-3.048005 0.82551,-4.635507 0.5715,1.629836 0.91016,3.132671 1.0795,4.635507 -0.635,0.02117 -1.24884,0.02117 -1.90501,0 z m -5.10117,7.344845 h 5.43984 c -0.1905,-1.502836 -0.3175,-2.921004 -0.381,-4.254507 0.71967,-0.02117 1.397,-0.02117 2.0955,0 -0.0212,1.375836 -0.16933,2.772838 -0.381,4.254507 h 5.43985 c -1.20651,-5.778509 -1.84151,-9.038181 -2.20134,-14.81669 h -7.93751 c -0.29634,5.122341 -0.95251,9.779016 -2.07434,14.81669 z m 16.84869,-14.81669 h -5.43985 c 1.12184,5.037675 1.77801,9.694349 2.07434,14.81669 h 7.93751 c 0.35984,-5.778509 0.99484,-9.038181 2.20134,-14.81669 h -5.43984 c 0.46566,4.254507 0.35983,7.408345 -0.74084,11.641685 -0.78316,-3.97934 -1.016,-7.154345 -0.59266,-11.641685 z m 7.87401,14.81669 9.14401,0.08467 0.29633,-4.635507 c -1.73567,0.338667 -3.1115,0.508 -4.46617,0.508 l -0.1905,-1.672169 h 2.11667 V 77.27256 h -2.3495 l -0.127,-1.86267 c 1.4605,0.02117 2.8575,0.127001 4.72017,0.444501 l 0.29633,-4.445007 h -10.32935 l 0.14817,4.466174 c 0.5715,-0.127 1.27,-0.296334 1.73567,-0.381001 -0.127,3.810006 -0.3175,6.244177 -0.99483,10.731517 z"
       id="text10"
       style="font-size:21.1667px;font-family:'Black Wizard Straight PERSONAL';-inkscape-font-specification:'Black Wizard Straight PERSONAL';text-align:center;text-anchor:middle;fill:none;stroke:#000000;stroke-width:0.1;stroke-linecap:round"
       aria-label="Lightwave" />
    <path
       d="m 48.112243,89.930244 9.482682,0.08467 0.296334,-4.635507 c -1.756836,0.338667 -3.471339,0.508001 -4.847175,0.508001 -0.402167,-3.556006 -0.4445,-6.35001 -0.275167,-10.773851 h -3.873506 c 0.169334,5.778509 -0.02117,9.038181 -0.783168,14.81669 z m 9.990686,0 h 5.439842 c -0.825502,-5.778509 -1.016002,-9.038181 -0.783168,-14.81669 h -3.873506 c 0.169333,5.778509 -0.02117,9.038181 -0.783168,14.81669 z m 11.68404,2.05317 h 5.122342 C 74.147309,88.808409 73.893309,86.204905 73.808642,83.0299 h -2.942171 c -0.02117,0.889002 -0.04233,1.73567 -0.105834,2.561171 -2.222503,0.211667 -3.153838,-1.016002 -3.132671,-3.069172 0,-2.032003 0.889001,-3.450172 1.862669,-3.450172 0.952502,0 1.60867,1.312336 1.439336,2.984505 h 3.344339 c 0.550334,-4.402674 -1.375836,-7.154345 -4.487341,-7.154345 -3.577172,0 -6.138343,3.598339 -6.138343,8.487847 0,4.550841 2.222504,6.244177 4.868341,6.244177 0.592668,0 1.185335,-0.08467 1.79917,-0.232834 -0.148167,0.825501 -0.317501,1.693336 -0.529168,2.582337 z m 5.334004,-2.05317 h 5.439842 c -0.275167,-2.286003 -0.486834,-4.16984 -0.635001,-5.969009 0.804335,-0.02117 1.608669,-0.02117 2.434171,0.02117 -0.148167,1.799169 -0.359834,3.683006 -0.592668,5.947842 h 5.439842 c -0.825501,-5.778509 -1.016001,-9.038181 -0.783168,-14.81669 h -3.873506 c 0.0635,2.18017 0.04233,4.000507 -0.02117,5.736176 -0.952501,0.04233 -1.820336,0.04233 -2.772837,0 -0.0635,-1.735669 -0.0635,-3.556006 0.02117,-5.736176 h -3.873506 c 0.169334,5.778509 -0.02117,9.038181 -0.783168,14.81669 z m 11.705176,-14.81669 0.296333,4.445007 c 1.206502,-0.211667 2.243671,-0.359834 3.217339,-0.4445 -0.127,3.810006 -0.402167,6.328843 -0.994835,10.816183 h 5.439842 c -0.592668,-4.48734 -0.867835,-7.006177 -1.016002,-10.816183 0.994835,0.08467 2.05317,0.232833 3.280839,0.4445 l 0.296334,-4.445007 z m 20.891531,10.287017 -2.032,-5.164675 -2.0955,5.164675 c -0.78317,-3.97934 -0.95251,-5.799676 -0.59267,-10.287017 h -5.439844 c 1.121836,5.037675 1.778003,9.694349 2.074337,14.81669 h 4.593177 l 1.35467,-2.137836 1.41816,2.137836 h 4.67785 c 0.29633,-5.122341 0.9525,-9.779015 2.07433,-14.81669 h -5.43984 c 0.35983,4.487341 0.1905,6.307677 -0.59267,10.287017 z m 10.16001,-2.815172 c 0.10584,-1.524002 0.35984,-3.048004 0.82551,-4.635507 0.5715,1.629836 0.91016,3.132672 1.0795,4.635507 -0.635,0.02117 -1.24884,0.02117 -1.90501,0 z m -5.10117,7.344845 h 5.43984 c -0.1905,-1.502835 -0.3175,-2.921004 -0.381,-4.254506 0.71967,-0.02117 1.397,-0.02117 2.0955,0 -0.0212,1.375835 -0.16933,2.772837 -0.381,4.254506 h 5.43985 c -1.20651,-5.778509 -1.84151,-9.038181 -2.20134,-14.81669 h -7.93751 c -0.29634,5.122342 -0.95251,9.779016 -2.07434,14.81669 z m 16.84869,-14.81669 h -5.43985 c 1.12184,5.037675 1.77801,9.694349 2.07434,14.81669 h 7.93751 c 0.35984,-5.778509 0.99484,-9.038181 2.20134,-14.81669 h -5.43984 c 0.46566,4.254507 0.35983,7.408345 -0.74084,11.641685 -0.78316,-3.979339 -1.016,-7.154344 -0.59266,-11.641685 z m 7.87401,14.81669 9.14401,0.08467 0.29633,-4.635507 c -1.73567,0.338667 -3.1115,0.508001 -4.46617,0.508001 l -0.1905,-1.67217 h 2.11667 V 80.97673 h -2.3495 l -0.127,-1.862669 c 1.4605,0.02117 2.8575,0.127 4.72017,0.4445 l 0.29633,-4.445007 h -10.32935 l 0.14817,4.466174 c 0.5715,-0.127 1.27,-0.296334 1.73567,-0.381001 -0.127,3.810006 -0.3175,6.244177 -0.99483,10.731517 z"
       id="text11"
       style="font-size:21.1667px;font-family:'Black Wizard Straight PERSONAL';-inkscape-font-specification:'Black Wizard Straight PERSONAL';text-align:center;text-anchor:middle;fill:none;stroke:#000000;stroke-width:0.1;stroke-linecap:round"
       aria-label="Lightwave" />
    <path
       d="m 48.112243,93.634415 9.482682,0.08467 0.296334,-4.635507 c -1.756836,0.338667 -3.471339,0.508001 -4.847175,0.508001 -0.402167,-3.556006 -0.4445,-6.35001 -0.275167,-10.773851 h -3.873506 c 0.169334,5.77851 -0.02117,9.038181 -0.783168,14.816691 z m 9.990686,0 h 5.439842 c -0.825502,-5.77851 -1.016002,-9.038181 -0.783168,-14.816691 h -3.873506 c 0.169333,5.77851 -0.02117,9.038181 -0.783168,14.816691 z m 11.68404,2.05317 h 5.122342 C 74.147309,92.51258 73.893309,89.909075 73.808642,86.73407 h -2.942171 c -0.02117,0.889002 -0.04233,1.73567 -0.105834,2.561171 -2.222503,0.211667 -3.153838,-1.016002 -3.132671,-3.069171 0,-2.032004 0.889001,-3.450173 1.862669,-3.450173 0.952502,0 1.60867,1.312336 1.439336,2.984505 h 3.344339 c 0.550334,-4.402674 -1.375836,-7.154345 -4.487341,-7.154345 -3.577172,0 -6.138343,3.598339 -6.138343,8.487847 0,4.550841 2.222504,6.244177 4.868341,6.244177 0.592668,0 1.185335,-0.08467 1.79917,-0.232834 -0.148167,0.825501 -0.317501,1.693336 -0.529168,2.582338 z m 5.334004,-2.05317 h 5.439842 c -0.275167,-2.286004 -0.486834,-4.16984 -0.635001,-5.96901 0.804335,-0.02117 1.608669,-0.02117 2.434171,0.02117 -0.148167,1.799169 -0.359834,3.683006 -0.592668,5.947843 h 5.439842 c -0.825501,-5.77851 -1.016001,-9.038181 -0.783168,-14.816691 h -3.873506 c 0.0635,2.180171 0.04233,4.000507 -0.02117,5.736176 -0.952501,0.04233 -1.820336,0.04233 -2.772837,0 -0.0635,-1.735669 -0.0635,-3.556005 0.02117,-5.736176 h -3.873506 c 0.169334,5.77851 -0.02117,9.038181 -0.783168,14.816691 z m 11.705176,-14.816691 0.296333,4.445007 c 1.206502,-0.211667 2.243671,-0.359833 3.217339,-0.4445 -0.127,3.810006 -0.402167,6.328843 -0.994835,10.816184 h 5.439842 c -0.592668,-4.487341 -0.867835,-7.006178 -1.016002,-10.816184 0.994835,0.08467 2.05317,0.232833 3.280839,0.4445 l 0.296334,-4.445007 z m 20.891531,10.287017 -2.032,-5.164675 -2.0955,5.164675 c -0.78317,-3.97934 -0.95251,-5.799676 -0.59267,-10.287017 h -5.439844 c 1.121836,5.037675 1.778003,9.694349 2.074337,14.816691 h 4.593177 l 1.35467,-2.137837 1.41816,2.137837 h 4.67785 c 0.29633,-5.122342 0.9525,-9.779016 2.07433,-14.816691 h -5.43984 c 0.35983,4.487341 0.1905,6.307677 -0.59267,10.287017 z m 10.16001,-2.815171 c 0.10584,-1.524003 0.35984,-3.048005 0.82551,-4.635508 0.5715,1.629836 0.91016,3.132672 1.0795,4.635508 -0.635,0.02117 -1.24884,0.02117 -1.90501,0 z m -5.10117,7.344845 h 5.43984 c -0.1905,-1.502836 -0.3175,-2.921005 -0.381,-4.254507 0.71967,-0.02117 1.397,-0.02117 2.0955,0 -0.0212,1.375835 -0.16933,2.772838 -0.381,4.254507 h 5.43985 c -1.20651,-5.77851 -1.84151,-9.038181 -2.20134,-14.816691 h -7.93751 c -0.29634,5.122342 -0.95251,9.779016 -2.07434,14.816691 z m 16.84869,-14.816691 h -5.43985 c 1.12184,5.037675 1.77801,9.694349 2.07434,14.816691 h 7.93751 c 0.35984,-5.77851 0.99484,-9.038181 2.20134,-14.816691 h -5.43984 c 0.46566,4.254507 0.35983,7.408346 -0.74084,11.641686 -0.78316,-3.97934 -1.016,-7.154345 -0.59266,-11.641686 z m 7.87401,14.816691 9.14401,0.08467 0.29633,-4.635507 c -1.73567,0.338667 -3.1115,0.508001 -4.46617,0.508001 l -0.1905,-1.672169 h 2.11667 V 84.6809 h -2.3495 l -0.127,-1.862669 c 1.4605,0.02117 2.8575,0.127 4.72017,0.4445 l 0.29633,-4.445007 h -10.32935 l 0.14817,4.466174 c 0.5715,-0.127 1.27,-0.296334 1.73567,-0.381 -0.127,3.810006 -0.3175,6.244176 -0.99483,10.731517 z"
       id="text12"
       style="font-size:21.1667px;font-family:'Black Wizard Straight PERSONAL';-inkscape-font-specification:'Black Wizard Straight PERSONAL';text-align:center;text-anchor:middle;fill:none;stroke:#000000;stroke-width:0.1;stroke-linecap:round"
       aria-label="Lightwave" />
    <path
       d="m 48.112243,82.521904 9.482682,0.08467 0.296334,-4.635508 c -1.756836,0.338668 -3.471339,0.508001 -4.847175,0.508001 -0.402167,-3.556005 -0.4445,-6.35001 -0.275167,-10.77385 h -3.873506 c 0.169334,5.778509 -0.02117,9.038181 -0.783168,14.81669 z m 9.990686,0 h 5.439842 c -0.825502,-5.778509 -1.016002,-9.038181 -0.783168,-14.81669 h -3.873506 c 0.169333,5.778509 -0.02117,9.038181 -0.783168,14.81669 z m 11.68404,2.05317 h 5.122342 C 74.147309,81.400069 73.893309,78.796565 73.808642,75.62156 h -2.942171 c -0.02117,0.889001 -0.04233,1.735669 -0.105834,2.56117 -2.222503,0.211667 -3.153838,-1.016001 -3.132671,-3.069171 0,-2.032003 0.889001,-3.450172 1.862669,-3.450172 0.952502,0 1.60867,1.312335 1.439336,2.984504 h 3.344339 c 0.550334,-4.402673 -1.375836,-7.154344 -4.487341,-7.154344 -3.577172,0 -6.138343,3.598339 -6.138343,8.487847 0,4.55084 2.222504,6.244176 4.868341,6.244176 0.592668,0 1.185335,-0.08467 1.79917,-0.232834 -0.148167,0.825502 -0.317501,1.693337 -0.529168,2.582338 z m 5.334004,-2.05317 h 5.439842 c -0.275167,-2.286004 -0.486834,-4.16984 -0.635001,-5.96901 0.804335,-0.02117 1.608669,-0.02117 2.434171,0.02117 -0.148167,1.79917 -0.359834,3.683006 -0.592668,5.947843 h 5.439842 c -0.825501,-5.778509 -1.016001,-9.038181 -0.783168,-14.81669 h -3.873506 c 0.0635,2.18017 0.04233,4.000506 -0.02117,5.736176 -0.952501,0.04233 -1.820336,0.04233 -2.772837,0 -0.0635,-1.73567 -0.0635,-3.556006 0.02117,-5.736176 h -3.873506 c 0.169334,5.778509 -0.02117,9.038181 -0.783168,14.81669 z m 11.705176,-14.81669 0.296333,4.445007 c 1.206502,-0.211667 2.243671,-0.359834 3.217339,-0.444501 -0.127,3.810006 -0.402167,6.328844 -0.994835,10.816184 h 5.439842 c -0.592668,-4.48734 -0.867835,-7.006178 -1.016002,-10.816184 0.994835,0.08467 2.05317,0.232834 3.280839,0.444501 l 0.296334,-4.445007 z m 20.891531,10.287016 -2.032,-5.164675 -2.0955,5.164675 c -0.78317,-3.97934 -0.95251,-5.799676 -0.59267,-10.287016 h -5.439844 c 1.121836,5.037674 1.778003,9.694349 2.074337,14.81669 h 4.593177 l 1.35467,-2.137837 1.41816,2.137837 h 4.67785 c 0.29633,-5.122341 0.9525,-9.779016 2.07433,-14.81669 h -5.43984 c 0.35983,4.48734 0.1905,6.307676 -0.59267,10.287016 z m 10.16001,-2.815171 c 0.10584,-1.524002 0.35984,-3.048005 0.82551,-4.635507 0.5715,1.629836 0.91016,3.132671 1.0795,4.635507 -0.635,0.02117 -1.24884,0.02117 -1.90501,0 z m -5.10117,7.344845 h 5.43984 c -0.1905,-1.502836 -0.3175,-2.921005 -0.381,-4.254507 0.71967,-0.02117 1.397,-0.02117 2.0955,0 -0.0212,1.375836 -0.16933,2.772838 -0.381,4.254507 h 5.43985 c -1.20651,-5.778509 -1.84151,-9.038181 -2.20134,-14.81669 h -7.93751 c -0.29634,5.122341 -0.95251,9.779015 -2.07434,14.81669 z m 16.84869,-14.81669 h -5.43985 c 1.12184,5.037674 1.77801,9.694349 2.07434,14.81669 h 7.93751 c 0.35984,-5.778509 0.99484,-9.038181 2.20134,-14.81669 h -5.43984 c 0.46566,4.254507 0.35983,7.408345 -0.74084,11.641685 -0.78316,-3.97934 -1.016,-7.154345 -0.59266,-11.641685 z m 7.87401,14.81669 9.14401,0.08467 0.29633,-4.635508 c -1.73567,0.338668 -3.1115,0.508001 -4.46617,0.508001 l -0.1905,-1.672169 h 2.11667 V 73.56839 h -2.3495 l -0.127,-1.86267 c 1.4605,0.02117 2.8575,0.127 4.72017,0.444501 l 0.29633,-4.445007 h -10.32935 l 0.14817,4.466174 c 0.5715,-0.127001 1.27,-0.296334 1.73567,-0.381001 -0.127,3.810006 -0.3175,6.244177 -0.99483,10.731517 z"
       id="text6"
       style="font-size:21.1667px;font-family:'Black Wizard Straight PERSONAL';-inkscape-font-specification:'Black Wizard Straight PERSONAL';text-align:center;text-anchor:middle;stroke-width:0.1;stroke-linecap:round"
       aria-label="Lightwave" />
    <path
       d="m 48.112243,78.817734 9.482682,0.08467 0.296334,-4.635508 c -1.756836,0.338667 -3.471339,0.508001 -4.847175,0.508001 -0.402167,-3.556006 -0.4445,-6.35001 -0.275167,-10.77385 h -3.873506 c 0.169334,5.778509 -0.02117,9.038181 -0.783168,14.81669 z m 9.990686,0 h 5.439842 c -0.825502,-5.778509 -1.016002,-9.038181 -0.783168,-14.81669 h -3.873506 c 0.169333,5.778509 -0.02117,9.038181 -0.783168,14.81669 z m 11.68404,2.05317 h 5.122342 c -0.762002,-3.175005 -1.016002,-5.778509 -1.100669,-8.953515 h -2.942171 c -0.02117,0.889002 -0.04233,1.73567 -0.105834,2.561171 -2.222503,0.211667 -3.153838,-1.016001 -3.132671,-3.069171 0,-2.032004 0.889001,-3.450173 1.862669,-3.450173 0.952502,0 1.60867,1.312336 1.439336,2.984505 h 3.344339 c 0.550334,-4.402673 -1.375836,-7.154344 -4.487341,-7.154344 -3.577172,0 -6.138343,3.598339 -6.138343,8.487846 0,4.550841 2.222504,6.244177 4.868341,6.244177 0.592668,0 1.185335,-0.08467 1.79917,-0.232834 -0.148167,0.825502 -0.317501,1.693336 -0.529168,2.582338 z m 5.334004,-2.05317 h 5.439842 c -0.275167,-2.286004 -0.486834,-4.16984 -0.635001,-5.96901 0.804335,-0.02117 1.608669,-0.02117 2.434171,0.02117 -0.148167,1.799169 -0.359834,3.683006 -0.592668,5.947843 h 5.439842 c -0.825501,-5.778509 -1.016001,-9.038181 -0.783168,-14.81669 h -3.873506 c 0.0635,2.18017 0.04233,4.000506 -0.02117,5.736175 -0.952501,0.04233 -1.820336,0.04233 -2.772837,0 -0.0635,-1.735669 -0.0635,-3.556005 0.02117,-5.736175 h -3.873506 c 0.169334,5.778509 -0.02117,9.038181 -0.783168,14.81669 z m 11.705176,-14.81669 0.296333,4.445007 c 1.206502,-0.211667 2.243671,-0.359834 3.217339,-0.444501 -0.127,3.810006 -0.402167,6.328843 -0.994835,10.816184 h 5.439842 C 94.19216,74.330393 93.916993,71.811556 93.768826,68.00155 c 0.994835,0.08467 2.05317,0.232834 3.280839,0.444501 l 0.296334,-4.445007 z m 20.891531,10.287016 -2.032,-5.164675 -2.0955,5.164675 c -0.78317,-3.97934 -0.95251,-5.799676 -0.59267,-10.287016 h -5.439844 c 1.121836,5.037674 1.778003,9.694348 2.074337,14.81669 h 4.593177 l 1.35467,-2.137837 1.41816,2.137837 h 4.67785 c 0.29633,-5.122342 0.9525,-9.779016 2.07433,-14.81669 h -5.43984 c 0.35983,4.48734 0.1905,6.307676 -0.59267,10.287016 z m 10.16001,-2.815171 c 0.10584,-1.524003 0.35984,-3.048005 0.82551,-4.635508 0.5715,1.629836 0.91016,3.132672 1.0795,4.635508 -0.635,0.02117 -1.24884,0.02117 -1.90501,0 z m -5.10117,7.344845 h 5.43984 c -0.1905,-1.502836 -0.3175,-2.921005 -0.381,-4.254507 0.71967,-0.02117 1.397,-0.02117 2.0955,0 -0.0212,1.375836 -0.16933,2.772838 -0.381,4.254507 h 5.43985 c -1.20651,-5.778509 -1.84151,-9.038181 -2.20134,-14.81669 h -7.93751 c -0.29634,5.122341 -0.95251,9.779015 -2.07434,14.81669 z m 16.84869,-14.81669 h -5.43985 c 1.12184,5.037674 1.77801,9.694348 2.07434,14.81669 h 7.93751 c 0.35984,-5.778509 0.99484,-9.038181 2.20134,-14.81669 h -5.43984 c 0.46566,4.254506 0.35983,7.408345 -0.74084,11.641685 -0.78316,-3.97934 -1.016,-7.154345 -0.59266,-11.641685 z m 7.87401,14.81669 9.14401,0.08467 0.29633,-4.635508 c -1.73567,0.338667 -3.1115,0.508001 -4.46617,0.508001 l -0.1905,-1.672169 h 2.11667 V 69.86422 h -2.3495 l -0.127,-1.86267 c 1.4605,0.02117 2.8575,0.127 4.72017,0.444501 l 0.29633,-4.445007 h -10.32935 l 0.14817,4.466173 c 0.5715,-0.127 1.27,-0.296334 1.73567,-0.381 -0.127,3.810006 -0.3175,6.244176 -0.99483,10.731517 z"
       id="text7"
       style="font-size:21.1667px;font-family:'Black Wizard Straight PERSONAL';-inkscape-font-specification:'Black Wizard Straight PERSONAL';text-align:center;text-anchor:middle;fill:none;stroke:#000000;stroke-width:0.1;stroke-linecap:round"
       aria-label="Lightwave" />
    <path
       d="m 48.112243,75.113564 9.482682,0.08467 0.296334,-4.635507 c -1.756836,0.338667 -3.471339,0.508001 -4.847175,0.508001 -0.402167,-3.556006 -0.4445,-6.35001 -0.275167,-10.773851 h -3.873506 c 0.169334,5.778509 -0.02117,9.038181 -0.783168,14.816691 z m 9.990686,0 h 5.439842 c -0.825502,-5.77851 -1.016002,-9.038182 -0.783168,-14.816691 h -3.873506 c 0.169333,5.778509 -0.02117,9.038181 -0.783168,14.816691 z m 11.68404,2.053169 h 5.122342 c -0.762002,-3.175005 -1.016002,-5.778509 -1.100669,-8.953514 h -2.942171 c -0.02117,0.889002 -0.04233,1.73567 -0.105834,2.561171 -2.222503,0.211667 -3.153838,-1.016002 -3.132671,-3.069172 0,-2.032003 0.889001,-3.450172 1.862669,-3.450172 0.952502,0 1.60867,1.312336 1.439336,2.984505 h 3.344339 c 0.550334,-4.402674 -1.375836,-7.154345 -4.487341,-7.154345 -3.577172,0 -6.138343,3.598339 -6.138343,8.487847 0,4.550841 2.222504,6.244177 4.868341,6.244177 0.592668,0 1.185335,-0.08467 1.79917,-0.232834 -0.148167,0.825501 -0.317501,1.693336 -0.529168,2.582337 z m 5.334004,-2.053169 h 5.439842 c -0.275167,-2.286004 -0.486834,-4.16984 -0.635001,-5.96901 0.804335,-0.02117 1.608669,-0.02117 2.434171,0.02117 -0.148167,1.799169 -0.359834,3.683006 -0.592668,5.947843 h 5.439842 c -0.825501,-5.77851 -1.016001,-9.038182 -0.783168,-14.816691 h -3.873506 c 0.0635,2.18017 0.04233,4.000507 -0.02117,5.736176 -0.952501,0.04233 -1.820336,0.04233 -2.772837,0 -0.0635,-1.735669 -0.0635,-3.556006 0.02117,-5.736176 h -3.873506 c 0.169334,5.778509 -0.02117,9.038181 -0.783168,14.816691 z m 11.705176,-14.816691 0.296333,4.445007 c 1.206502,-0.211667 2.243671,-0.359834 3.217339,-0.4445 -0.127,3.810006 -0.402167,6.328843 -0.994835,10.816184 h 5.439842 C 94.19216,70.626223 93.916993,68.107386 93.768826,64.29738 c 0.994835,0.08467 2.05317,0.232833 3.280839,0.4445 l 0.296334,-4.445007 z m 20.891531,10.287017 -2.032,-5.164675 -2.0955,5.164675 c -0.78317,-3.97934 -0.95251,-5.799676 -0.59267,-10.287017 h -5.439844 c 1.121836,5.037675 1.778003,9.694349 2.074337,14.816691 h 4.593177 l 1.35467,-2.137837 1.41816,2.137837 h 4.67785 c 0.29633,-5.122342 0.9525,-9.779016 2.07433,-14.816691 h -5.43984 c 0.35983,4.487341 0.1905,6.307677 -0.59267,10.287017 z m 10.16001,-2.815171 c 0.10584,-1.524003 0.35984,-3.048005 0.82551,-4.635508 0.5715,1.629836 0.91016,3.132672 1.0795,4.635508 -0.635,0.02117 -1.24884,0.02117 -1.90501,0 z m -5.10117,7.344845 h 5.43984 c -0.1905,-1.502836 -0.3175,-2.921005 -0.381,-4.254507 0.71967,-0.02117 1.397,-0.02117 2.0955,0 -0.0212,1.375835 -0.16933,2.772838 -0.381,4.254507 h 5.43985 c -1.20651,-5.77851 -1.84151,-9.038182 -2.20134,-14.816691 h -7.93751 c -0.29634,5.122342 -0.95251,9.779016 -2.07434,14.816691 z m 16.84869,-14.816691 h -5.43985 c 1.12184,5.037675 1.77801,9.694349 2.07434,14.816691 h 7.93751 c 0.35984,-5.77851 0.99484,-9.038182 2.20134,-14.816691 h -5.43984 c 0.46566,4.254507 0.35983,7.408345 -0.74084,11.641685 -0.78316,-3.979339 -1.016,-7.154344 -0.59266,-11.641685 z m 7.87401,14.816691 9.14401,0.08467 0.29633,-4.635507 c -1.73567,0.338667 -3.1115,0.508001 -4.46617,0.508001 l -0.1905,-1.67217 h 2.11667 v -3.238505 h -2.3495 l -0.127,-1.862669 c 1.4605,0.02117 2.8575,0.127 4.72017,0.4445 l 0.29633,-4.445007 h -10.32935 l 0.14817,4.466174 c 0.5715,-0.127 1.27,-0.296334 1.73567,-0.381001 -0.127,3.810007 -0.3175,6.244177 -0.99483,10.731518 z"
       id="text8"
       style="font-size:21.1667px;font-family:'Black Wizard Straight PERSONAL';-inkscape-font-specification:'Black Wizard Straight PERSONAL';text-align:center;text-anchor:middle;fill:none;stroke:#000000;stroke-width:0.1;stroke-linecap:round"
       aria-label="Lightwave" />
    <path
       d="m 48.112243,71.409393 9.482682,0.08467 0.296334,-4.635507 c -1.756836,0.338667 -3.471339,0.508001 -4.847175,0.508001 -0.402167,-3.556006 -0.4445,-6.350011 -0.275167,-10.773851 h -3.873506 c 0.169334,5.778509 -0.02117,9.038181 -0.783168,14.81669 z m 9.990686,0 h 5.439842 c -0.825502,-5.778509 -1.016002,-9.038181 -0.783168,-14.81669 h -3.873506 c 0.169333,5.778509 -0.02117,9.038181 -0.783168,14.81669 z m 11.68404,2.05317 h 5.122342 c -0.762002,-3.175005 -1.016002,-5.778509 -1.100669,-8.953514 h -2.942171 c -0.02117,0.889001 -0.04233,1.735669 -0.105834,2.561171 -2.222503,0.211667 -3.153838,-1.016002 -3.132671,-3.069172 0,-2.032003 0.889001,-3.450172 1.862669,-3.450172 0.952502,0 1.60867,1.312335 1.439336,2.984505 h 3.344339 c 0.550334,-4.402674 -1.375836,-7.154345 -4.487341,-7.154345 -3.577172,0 -6.138343,3.598339 -6.138343,8.487847 0,4.55084 2.222504,6.244177 4.868341,6.244177 0.592668,0 1.185335,-0.08467 1.79917,-0.232834 -0.148167,0.825501 -0.317501,1.693336 -0.529168,2.582337 z m 5.334004,-2.05317 h 5.439842 c -0.275167,-2.286003 -0.486834,-4.16984 -0.635001,-5.969009 0.804335,-0.02117 1.608669,-0.02117 2.434171,0.02117 -0.148167,1.799169 -0.359834,3.683005 -0.592668,5.947842 h 5.439842 c -0.825501,-5.778509 -1.016001,-9.038181 -0.783168,-14.81669 h -3.873506 c 0.0635,2.18017 0.04233,4.000506 -0.02117,5.736176 -0.952501,0.04233 -1.820336,0.04233 -2.772837,0 -0.0635,-1.73567 -0.0635,-3.556006 0.02117,-5.736176 h -3.873506 c 0.169334,5.778509 -0.02117,9.038181 -0.783168,14.81669 z m 11.705176,-14.81669 0.296333,4.445007 c 1.206502,-0.211667 2.243671,-0.359834 3.217339,-0.444501 -0.127,3.810006 -0.402167,6.328844 -0.994835,10.816184 h 5.439842 c -0.592668,-4.48734 -0.867835,-7.006178 -1.016002,-10.816184 0.994835,0.08467 2.05317,0.232834 3.280839,0.444501 l 0.296334,-4.445007 z m 20.891531,10.287016 -2.032,-5.164674 -2.0955,5.164674 c -0.78317,-3.979339 -0.95251,-5.799675 -0.59267,-10.287016 h -5.439844 c 1.121836,5.037675 1.778003,9.694349 2.074337,14.81669 h 4.593177 l 1.35467,-2.137836 1.41816,2.137836 h 4.67785 c 0.29633,-5.122341 0.9525,-9.779015 2.07433,-14.81669 h -5.43984 c 0.35983,4.487341 0.1905,6.307677 -0.59267,10.287016 z m 10.16001,-2.815171 c 0.10584,-1.524002 0.35984,-3.048005 0.82551,-4.635507 0.5715,1.629836 0.91016,3.132672 1.0795,4.635507 -0.635,0.02117 -1.24884,0.02117 -1.90501,0 z m -5.10117,7.344845 h 5.43984 c -0.1905,-1.502835 -0.3175,-2.921004 -0.381,-4.254506 0.71967,-0.02117 1.397,-0.02117 2.0955,0 -0.0212,1.375835 -0.16933,2.772837 -0.381,4.254506 h 5.43985 c -1.20651,-5.778509 -1.84151,-9.038181 -2.20134,-14.81669 h -7.93751 c -0.29634,5.122342 -0.95251,9.779016 -2.07434,14.81669 z m 16.84869,-14.81669 h -5.43985 c 1.12184,5.037675 1.77801,9.694349 2.07434,14.81669 h 7.93751 c 0.35984,-5.778509 0.99484,-9.038181 2.20134,-14.81669 h -5.43984 c 0.46566,4.254507 0.35983,7.408345 -0.74084,11.641685 -0.78316,-3.979339 -1.016,-7.154344 -0.59266,-11.641685 z m 7.87401,14.81669 9.14401,0.08467 0.29633,-4.635507 c -1.73567,0.338667 -3.1115,0.508001 -4.46617,0.508001 l -0.1905,-1.67217 h 2.11667 v -3.238505 h -2.3495 l -0.127,-1.86267 c 1.4605,0.02117 2.8575,0.127001 4.72017,0.444501 l 0.29633,-4.445007 h -10.32935 l 0.14817,4.466174 c 0.5715,-0.127 1.27,-0.296334 1.73567,-0.381001 -0.127,3.810006 -0.3175,6.244177 -0.99483,10.731517 z"
       id="text9"
       style="font-size:21.1667px;font-family:'Black Wizard Straight PERSONAL';-inkscape-font-specification:'Black Wizard Straight PERSONAL';text-align:center;text-anchor:middle;fill:none;stroke:#000000;stroke-width:0.1;stroke-linecap:round"
       aria-label="Lightwave" />
  </g>
</svg>
